<svg class="icon" viewBox="0 0 1024 1024" xmlns="http://www.w3.org/2000/svg" width="200" height="200">
  <path d="M136.533 0h750.934Q1024 0 1024 136.533v750.934Q1024 1024 887.467 1024H136.533Q0 1024 0 887.467V136.533Q0 0 136.533 0z"/>
  <path d="M439.398 294.878h146.808a27.99 27.99 0 1 0 0-55.945H439.433a27.99 27.99 0 0 0 0 55.945z"/>
  <path d="M655.019 258.765a42.325 42.325 0 0 1-10.138 36.488 48.674 48.674 0 0 1-36.454 15.975H414.48c-14.063 0-27.443-5.837-36.42-15.975a42.325 42.325 0 0 1-10.138-36.522h-72.67c-15.052 0-29.525 5.632-40.209 15.599-10.65 10-16.657 23.552-16.657 37.649V737.62c0 29.39 25.464 53.248 56.866 53.248h432.401c31.403 0 56.867-23.859 56.867-53.248V311.98c0-29.355-25.464-53.248-56.867-53.248H655.02zM357.615 679.73a26.624 26.624 0 1 1 0-53.248 26.624 26.624 0 0 1 0 53.248zm0-117.52a26.624 26.624 0 1 1 0-53.249 26.624 26.624 0 1 1 0 53.248zm0-117.454a26.624 26.624 0 1 1 0-53.248 26.624 26.624 0 1 1 0 53.248zM547.499 666.42h-106.36a13.346 13.346 0 0 1 0-26.624H547.5c7.338 0 13.312 5.974 13.312 13.312 0 7.305-5.974 13.312-13.312 13.312zm0-117.52h-106.36a13.312 13.312 0 0 1 0-26.625H547.5c7.338 0 13.312 5.973 13.312 13.312 0 7.339-5.974 13.312-13.312 13.312zm137.216 67.583v105.575c0 6.212-4.984 11.195-10.786 10.786h-36.08c-5.802.341-10.786-4.642-10.786-10.786V616.482a70.451 70.451 0 0 1-41.881-64.17c0-30.72 19.968-56.867 47.275-66.458v66.833h46.899v-66.833a70.656 70.656 0 0 1 47.24 66.423c0 28.365-17.305 53.419-41.847 64.171zm28.603-185.003H441.105a13.312 13.312 0 0 1 0-26.624h272.213a13.312 13.312 0 0 1 0 26.624z"/>
</svg>
