<?xml version="1.0" encoding="UTF-8"?>
<svg width="90px" height="40px" viewBox="0 0 90 40" version="1.1" xmlns="http://www.w3.org/2000/svg" xmlns:xlink="http://www.w3.org/1999/xlink">
    <title>编组</title>
    <defs>
        <polygon id="path-1" points="0 39.3991416 90 39.3991416 90 0 0 0"></polygon>
    </defs>
    <g id="引擎2.0" stroke="none" stroke-width="1" fill="none" fill-rule="evenodd">
        <g id="产品案例" transform="translate(-32.000000, -12.000000)">
            <g id="编组" transform="translate(32.000000, 12.000000)">
                <path d="M16.4834744,14.398386 C15.1570826,16.3534618 12.9089062,17.6397201 10.3587738,17.6397201 C6.2817915,17.6397201 2.97665385,14.3534312 2.97665385,10.2994699 C2.97665385,6.245738 6.2817915,2.95990779 10.3587738,2.95990779 C12.7303624,2.95990779 14.8396713,4.07322762 16.1902842,5.80192386 L19.575928,5.80192386 C17.9139015,2.36907304 14.3827005,0 10.2946457,0 C4.60892311,0 0,4.58286846 0,10.2361662 C0,15.8892345 4.60892311,20.472103 10.2946457,20.472103 C14.4892732,20.472103 18.0954441,17.9766519 19.6995708,14.398386 L16.4834744,14.398386 Z" id="Fill-1" fill="#E40065"></path>
                <mask id="mask-2" fill="white">
                    <use xlink:href="#path-1"></use>
                </mask>
                <g id="Clip-4"></g>
                <polygon id="Fill-3" fill="#EF8200" mask="url(#mask-2)" points="21.6309013 20.472103 23.1759657 20.472103 23.1759657 10.0429185 21.6309013 10.0429185"></polygon>
                <path d="M23.5622318,6.9526704 C23.5622318,7.59309346 23.0433669,8.11158798 22.4035528,8.11158798 C21.7635001,8.11158798 21.2446352,7.59309346 21.2446352,6.9526704 C21.2446352,6.31272455 21.7635001,5.79399142 22.4035528,5.79399142 C23.0433669,5.79399142 23.5622318,6.31272455 23.5622318,6.9526704" id="Fill-5" fill="#EF8200" mask="url(#mask-2)"></path>
                <path d="M56.5606629,17.5888469 L50.7874878,17.5888469 L50.7874878,2.88302699 L56.5606629,2.88302699 C60.625726,2.88302699 63.9330829,6.18158004 63.9330829,10.2358224 C63.9330829,14.290523 60.625726,17.5888469 56.5606629,17.5888469 M56.5606629,0 L47.8969957,0 L47.8969957,20.472103 L56.5606629,20.472103 C62.2288754,20.472103 66.8240343,15.8891759 66.8240343,10.2358224 C66.8240343,4.58292715 62.2288754,0 56.5606629,0" id="Fill-6" fill="#0098D8" mask="url(#mask-2)"></path>
                <path d="M80.213633,17.6392931 C76.1599011,17.6392931 72.8738415,14.3532704 72.8738415,10.2995839 C72.8738415,6.24589739 76.1599011,2.95964527 80.213633,2.95964527 C84.2675943,2.95964527 87.5536538,6.24589739 87.5536538,10.2995839 C87.5536538,14.3532704 84.2675943,17.6392931 80.213633,17.6392931 M80.1500999,0 C74.4968022,0 69.9141631,4.58281712 69.9141631,10.2360515 C69.9141631,15.8892859 74.4968022,20.472103 80.1500999,20.472103 C85.8033976,20.472103 90.3862661,15.8892859 90.3862661,10.2360515 C90.3862661,4.58281712 85.8033976,0 80.1500999,0" id="Fill-7" fill="#1EAA39" mask="url(#mask-2)"></path>
                <path d="M30.9835501,10.1430144 L28.8933214,10.1430144 L28.8933214,5.79399142 L27.1150289,5.79399142 L27.1150289,10.1430144 L24.72103,10.1430144 L24.72103,11.8498878 L27.1150289,11.8498878 L27.1150289,17.0327552 L27.1171287,17.0327552 C27.1619243,20.7814728 30.966985,20.0228624 30.966985,20.0228624 L30.966985,18.6325991 C29.0277083,18.6325991 28.9213187,17.4071343 28.8933214,16.8914674 L28.8933214,11.8498878 L31.1909631,11.8498878 C31.1909631,11.8498878 31.2280595,11.8510073 31.2875536,11.8557094 L31.2875536,10.1441339 C31.0997387,10.1351775 30.9835501,10.1430144 30.9835501,10.1430144" id="Fill-8" fill="#FBC600" mask="url(#mask-2)"></path>
                <polygon id="Fill-9" fill="#6FB92C" mask="url(#mask-2)" points="42.0542482 10.4291845 38.0575661 18.2687711 34.426206 10.4291845 32.4463519 10.4291845 37.0411294 20.2627935 33.1930411 27.8111588 35.1703371 27.8111588 44.0343348 10.4291845"></polygon>
                <polygon id="Fill-10" fill="#FFFFFF" mask="url(#mask-2)" points="19.6995708 33.6051502 25.8798283 33.6051502 25.8798283 33.9528529 23.3881981 33.9528529 23.3881981 34.8212066 25.6678052 34.8212066 25.6678052 38.29575 24.5607863 38.29575 24.5607863 38.1282205 24.5643759 38.1282205 24.5643759 35.1524272 23.3881981 35.1524272 23.3881981 39.3991416 22.2967339 39.3991416 22.2967339 35.1524272 21.1320428 35.1524272 21.1320428 38.29575 20.0286134 38.29575 20.0286134 34.8212066 22.2967339 34.8212066 22.2967339 33.9528529 19.6995708 33.9528529"></polygon>
                <path d="M23.2829641,32.4463519 C23.4357846,32.7904385 23.5121948,33.0995425 23.5622318,33.6051502 L22.729306,33.6051502 C22.6810754,33.2643433 22.6093618,32.8866406 22.4034335,32.4463519 L23.2829641,32.4463519 Z" id="Fill-11" fill="#FFFFFF" mask="url(#mask-2)"></path>
                <path d="M30.581986,34.3538224 L33.0437833,34.3538224 C33.0993979,33.9134979 33.0984899,33.4661697 33.0984899,32.9980566 L33.0984899,32.4463519 L34.1340564,32.4463519 L34.1340564,32.9980566 C34.1340564,33.4383812 34.1254305,33.8656021 34.1068166,34.3538224 L36.6619102,34.3538224 L36.6619102,34.6782483 L34.1202095,34.6782483 C34.4847689,36.5355637 35.2141146,37.9039812 36.695279,39.3991416 L35.437027,39.3991416 C34.5794272,38.5257221 34.0005814,37.477438 33.632844,36.3595695 C33.2766836,37.477438 32.6753649,38.5395035 31.7735004,39.3991416 L30.5150215,39.3991416 C32.0740462,37.9175366 32.7754712,36.4878939 33.0092795,34.6782483 L30.581986,34.6782483 L30.581986,34.3538224 Z" id="Fill-12" fill="#FFFFFF" mask="url(#mask-2)"></path>
                <path d="M44.2958338,35.3862188 L45.0227005,35.3862188 C44.9608921,35.0172714 44.8885201,34.6053026 44.7246717,34.2104523 L44.0038735,34.2104523 C44.185253,34.6683705 44.2409929,34.9783044 44.2958338,35.3862188 L44.2958338,35.3862188 Z M41.7805694,35.6270032 L42.5078856,35.6270032 C42.7301711,35.1945373 42.8445728,34.7107162 42.9079545,34.2104523 L42.2019903,34.2104523 C42.1271459,34.7339161 41.9967864,35.1368752 41.7805694,35.6270032 L41.7805694,35.6270032 Z M46.406759,34.1113455 L46.4807043,33.8315941 L47.0787848,33.8315941 C46.9850608,34.4165493 46.8643659,34.9544287 46.6883805,35.525644 C46.571057,35.0589413 46.4771082,34.5922385 46.406759,34.1113455 L46.406759,34.1113455 Z M47.0871008,36.849395 C47.4741338,35.8461643 47.7357518,34.8625297 47.9115124,33.8315941 L48.2679783,33.8315941 L48.2715744,33.6236952 L46.53577,33.6236952 C46.6297187,33.2333497 46.7000679,32.8434547 46.7468175,32.4463519 L45.8673403,32.4463519 C45.7266419,33.4633224 45.3629838,34.8287433 44.9172891,35.9159895 L45.7500167,35.9159895 L45.8554282,35.664844 C45.9610643,36.062172 46.0786126,36.452067 46.219311,36.849395 C45.8673403,37.7273908 45.4216456,38.5702487 44.9056017,39.3923844 L45.8203659,39.3923844 C46.1253623,38.8977515 46.3950716,38.4031187 46.6416309,37.9015033 C46.8643659,38.3959109 47.1104757,38.8977515 47.4035598,39.3923844 L48.2832618,39.3923844 C47.8025049,38.563041 47.4035598,37.7132005 47.0871008,36.849395 L47.0871008,36.849395 Z M43.4051187,37.9021791 L42.8607554,37.6053093 C43.1070899,37.284789 43.248013,37.1327502 43.4120862,36.8399348 L44.1989632,36.8399348 C43.9762283,37.2510026 43.7103398,37.5257986 43.4051187,37.9021791 L43.4051187,37.9021791 Z M43.9856681,38.301309 C44.4666498,37.744284 44.9080741,37.1976201 45.1896956,36.5984747 L43.5345792,36.5984747 C43.6519028,36.3896748 43.7458515,36.1876321 43.8278881,35.978607 L42.9715609,35.978607 C42.8776122,36.1946146 42.7960251,36.3914767 42.6667894,36.5984747 L41.7167382,36.5984747 L41.7167382,36.8399348 L42.5323842,36.8399348 C42.3447115,37.1674376 42.1923257,37.3406492 41.9343037,37.6890995 C42.3213367,37.8909169 42.7259007,38.1125557 43.0659592,38.3078411 C42.7142133,38.6839963 42.2795317,39.0928116 41.904411,39.3991416 L42.8895243,39.3991416 C43.1358589,39.1763767 43.370506,38.9533865 43.593241,38.7306215 C43.7458515,38.8279263 43.8980126,38.9324389 44.0949004,39.1000194 L45.0098893,39.1000194 C44.6253288,38.7932389 44.3376388,38.5245245 43.9856681,38.301309 L43.9856681,38.301309 Z M42.9821246,34.048728 L42.9821246,35.7763391 L43.8616018,35.7763391 L43.8616018,34.048728 L45.0815871,34.048728 L45.0815871,33.8448835 L43.8616018,33.8448835 L43.8616018,32.4533345 L42.9821246,32.4533345 L42.9821246,33.8448835 L41.7740514,33.8448835 L41.7740514,34.048728 L42.9821246,34.048728 Z M44.9759509,32.5646043 L44.2605469,32.5646043 C44.2603221,32.9159828 44.125917,33.3052021 43.9652151,33.6703204 L44.6689318,33.6703204 C44.8624482,33.2910118 44.9669606,32.8738625 44.9759509,32.5646043 L44.9759509,32.5646043 Z M42.8515403,33.6806816 C42.6822977,33.2959672 42.6229616,32.7939013 42.606779,32.5646043 L41.891375,32.5646043 C41.921043,32.8691324 41.9756592,33.2959672 42.1361362,33.6806816 L42.8515403,33.6806816 Z" id="Fill-13" fill="#FFFFFF" mask="url(#mask-2)"></path>
                <path d="M74.9356223,34.5942939 L74.9356223,35.5513854 L76.0220562,35.5513854 L76.0220562,34.8742535 L80.3968777,34.8742535 L80.3968777,35.5513854 L81.5021459,35.5513854 L81.5021459,34.5942939 L74.9356223,34.5942939 Z M77.2839597,36.8814659 L79.1485635,36.8814659 L79.1485635,35.8130441 L77.2839597,35.8130441 L77.2839597,36.8814659 Z M80.2085339,37.1121875 L80.2085339,35.5694684 L76.2049166,35.5694684 L76.2049166,35.7243721 L76.2080159,35.7243721 L76.2080159,37.1121875 L80.2085339,37.1121875 Z M76.5379752,39.119182 L79.8828659,39.119182 L79.8828659,37.7625217 L76.5379752,37.7625217 L76.5379752,39.119182 Z M75.4737134,39.3991416 L80.9588098,39.3991416 L80.9588098,37.512192 L75.4737134,37.512192 L75.4737134,39.3991416 Z M76.4445185,34.3143343 L77.3979197,34.3143343 C77.3368867,34.0951596 77.2923041,33.902347 77.2570194,33.7276173 L79.175027,33.7276173 C79.1402191,33.902347 79.0953981,34.0951596 79.0341267,34.3143343 L79.9877663,34.3143343 C80.0564283,34.1267504 80.1014878,33.9311055 80.1374877,33.7276173 L81.4732983,33.7276173 L81.4732983,33.4221672 L80.1856465,33.4221672 C80.2125868,33.231969 80.2366662,33.0354526 80.2674211,32.832618 L79.3037683,32.832618 C79.2875565,32.9814215 79.2701525,33.1746699 79.2310533,33.4221672 L77.2014699,33.4221672 C77.1623707,33.1746699 77.1449668,32.9814215 77.1285165,32.832618 L76.1646253,32.832618 C76.1956186,33.0354526 76.219698,33.231969 76.2463999,33.4221672 L74.9592249,33.4221672 L74.9592249,33.7276173 L76.2945587,33.7276173 C76.3310354,33.9311055 76.3760949,34.1267504 76.4445185,34.3143343 L76.4445185,34.3143343 Z" id="Fill-14" fill="#FFFFFF" mask="url(#mask-2)"></path>
                <path d="M58.2644581,39.1307852 L58.8389423,39.1307852 L58.8389423,37.3755769 L58.2644581,37.3755769 L58.2644581,39.1307852 Z M57.1035363,34.1236358 L58.7920846,34.1236358 L58.7920846,32.8739257 L57.1035363,32.8739257 L57.1035363,34.1236358 Z M59.8712446,35.9426209 L59.8712446,35.6551763 L59.0151365,35.6551763 L59.0151365,34.6828053 L58.0533597,34.6828053 L58.0533597,35.6551763 L57.1035363,35.6551763 L57.1035363,34.3632478 L59.8241479,34.3632478 L59.8241479,32.626903 L56.0831875,32.626903 L56.0831875,36.8777139 C56.0831875,37.6627969 55.9892331,38.655828 55.3913201,39.3991416 L56.4936699,39.3991416 C56.9041523,38.8574883 57.1035363,38.1211362 57.1035363,36.8849001 L57.1035363,35.9426209 L58.0533597,35.9426209 L58.0533597,37.1000343 L57.2675381,37.1000343 L57.2675381,39.3991416 L59.8358623,39.3991416 L59.8358623,37.1000343 L59.0151365,37.1000343 L59.0151365,35.9426209 L59.8712446,35.9426209 Z M55.5907042,36.3780545 L55.6167627,36.3690718 L55.6167627,36.0695007 L55.0159809,36.2756523 L55.0159809,34.3506721 L55.6012232,34.3506721 L55.6012232,34.0508764 L55.0159809,34.0508764 L55.0159809,32.4463519 L53.9839177,32.4463519 L53.9839177,34.0508764 L53.304721,34.0508764 L53.304721,34.3506721 L53.9839177,34.3506721 L53.9839177,36.6300176 L53.8335429,36.6816678 L53.3271936,36.8530117 L53.3271936,36.8557065 L53.3200215,36.8581767 L53.3200215,37.1579724 L53.3271936,37.1555022 L53.3271936,37.1626883 L53.9839177,36.9403679 L53.9839177,37.950466 C53.9736377,38.2612654 53.8947447,38.9450691 53.3977191,38.9450691 L53.3977191,39.378257 L54.0071074,39.378257 L54.0020869,39.3771342 C54.8574778,39.3771342 54.9949428,38.373773 55.0159809,37.9720243 L55.0159809,36.5860026 L55.5907042,36.3845669 L55.5907042,36.3780545 Z" id="Fill-15" fill="#FFFFFF" mask="url(#mask-2)"></path>
                <path d="M66.2191175,34.6960288 L66.2191175,35.0222626 L66.2270353,35.0222626 L66.2270353,35.034751 L67.5569915,35.034751 C67.2628319,36.1666005 66.780084,37.2914389 66.1562547,38.3078249 L69.4990202,38.3078249 L69.5698008,38.5720546 L70.6761382,38.5720546 C70.4921085,37.8426843 70.2075464,37.0843933 69.8608412,36.3136139 L68.754024,36.3136139 C69.0189115,36.8946563 69.2432502,37.4884062 69.4239207,38.0164273 L67.4312659,38.0164273 C67.9219316,37.1628296 68.3926828,36.0513561 68.651572,35.034751 L70.6761382,35.034751 L70.6761382,35.0222626 L70.6866953,35.0222626 L70.6866953,34.6960288 L66.2191175,34.6960288 Z M70.19411,33.0845783 L70.1933902,33.0845783 L70.1933902,33.0762527 L66.7095433,33.0762527 L66.7095433,33.0845783 L66.7040248,33.0845783 L66.7040248,33.4108121 L70.19411,33.4108121 L70.19411,33.0845783 Z M65.7363695,38.433805 C65.9012044,37.8849698 65.8853688,37.4472161 65.8853688,37.1424537 L65.8853688,34.4044121 L64.1201717,34.4044121 L64.1201717,34.6697373 L64.7910281,34.6697373 L64.7910281,37.0340013 C64.7910281,37.9623106 64.6852171,38.5856385 64.1201717,39.3991416 L65.2502625,39.3991416 C65.3443168,39.2836781 65.4770005,39.0672113 65.5473013,38.938602 C65.9599884,39.2558529 66.4624109,39.3719737 67.7100696,39.3719737 L70.6526246,39.3719737 L70.6526246,39.0628294 L67.5099643,39.0628294 C66.4592918,39.0628294 66.0657994,38.8336551 65.7363695,38.433805 L65.7363695,38.433805 Z M65.9120015,34.0810265 C65.8174673,33.6270598 65.6881427,33.2109967 65.4997943,32.832618 L64.4052137,32.832618 C64.5818054,33.2489003 64.7231267,33.6649634 64.8051843,34.0810265 L65.9120015,34.0810265 Z" id="Fill-16" fill="#FFFFFF" mask="url(#mask-2)"></path>
                <path d="M15.0643777,33.5073142 L14.074016,33.5073142 L14.0624806,32.4463519 L13.189876,32.4463519 L13.201892,33.5073142 L10.8323296,33.5073142 L10.8323296,37.3469549 C10.8323296,38.0727695 10.7140918,38.8825404 10.4432504,39.3991416 L11.3509418,39.3991416 C11.645575,38.854555 11.7515564,38.0377878 11.7515564,37.3469549 L11.7515564,35.0205565 L12.2021578,35.0205565 L12.2021578,38.0104795 C12.1983127,38.1174559 12.1668307,38.3593941 11.9567903,38.3663904 L11.9567903,38.7010867 L12.4242142,38.7010867 L12.4230125,38.7004096 C12.8978863,38.690705 12.9774325,38.2097625 12.9894485,37.995584 L12.9894485,34.7291924 L11.7515564,34.7291924 L11.7515564,33.7740782 L13.201892,33.7740782 L13.2254435,36.4669949 C13.2254435,37.0885414 13.2960978,37.6401244 13.4491821,38.1215183 C13.2134274,38.5543891 12.9406634,38.9768782 12.5655227,39.3991416 L13.4518256,39.3991416 L13.8029342,38.9245184 C13.9091559,39.0989757 14.0386888,39.2594404 14.1802377,39.3991416 L15.0290505,39.3991416 C14.6870741,38.9382854 14.4277681,38.5473927 14.2744434,38.0447841 C14.6399713,37.2560024 14.8992773,36.4322389 15.052602,35.587712 L14.3097706,35.587712 C14.2629081,35.9158633 14.1920134,36.2370182 14.0978077,36.5509511 L14.0978077,36.4669949 L14.074016,33.7740782 L15.0643777,33.7740782 L15.0643777,33.5073142 Z M15.052602,33.3330826 C15.0172748,33.0814397 14.9583962,32.8234776 14.8521745,32.5090934 L14.2037892,32.5090934 C14.2862192,32.7325251 14.3453381,33.011702 14.4042166,33.3330826 L15.052602,33.3330826 Z M8.50962979,38.460954 L8.50962979,38.7918135 L10.5374561,38.0867622 L10.5374561,37.749132 L9.91262221,37.9725638 L9.91262221,35.1909514 L10.5139047,35.1909514 L10.5139047,34.8826607 L9.91262221,34.8826607 L9.91262221,33.0466837 L9.07558511,33.0466837 L9.07558511,34.8826607 L8.49785408,34.8826607 L8.49785408,35.1909514 L9.07558511,35.1909514 L9.07558511,38.258737 L8.50962979,38.460954 Z" id="Fill-17" fill="#FFFFFF" mask="url(#mask-2)"></path>
            </g>
        </g>
    </g>
</svg>