<?xml version="1.0" standalone="no"?><!DOCTYPE svg PUBLIC "-//W3C//DTD SVG 1.1//EN" "http://www.w3.org/Graphics/SVG/1.1/DTD/svg11.dtd"><svg t="1623052198641" class="icon" viewBox="0 0 1024 1024" version="1.1" xmlns="http://www.w3.org/2000/svg" p-id="9245" xmlns:xlink="http://www.w3.org/1999/xlink" width="200" height="200"><defs><style type="text/css"></style></defs><path d="M558.592 47.908571v414.939429c0 31.890286-15.945143 47.835429-47.908571 47.835429-31.890286 0-47.835429-15.945143-47.835429-47.835429V47.908571c0-31.963429 15.945143-47.908571 47.835429-47.908571 31.963429 0 47.908571 15.945143 47.908571 47.908571zM175.542857 143.652571a47.908571 47.908571 0 0 1 34.450286 81.042286 414.939429 414.939429 0 1 0 601.380571 0 47.908571 47.908571 0 0 1 68.973715-63.853714 510.683429 510.683429 0 1 1-739.254858 0 47.250286 47.250286 0 0 1 34.450286-17.188572z" p-id="9246"></path></svg>